<?xml version="1.0" standalone="no"?>
<!DOCTYPE svg PUBLIC "-//W3C//DTD SVG 20010904//EN"
 "http://www.w3.org/TR/2001/REC-SVG-20010904/DTD/svg10.dtd">
<svg version="1.0" xmlns="http://www.w3.org/2000/svg"
 width="70.000000pt" height="70.000000pt" viewBox="0 0 70.000000 70.000000"
 preserveAspectRatio="xMidYMid meet">
<metadata>
Created by potrace 1.11, written by Peter Selinger 2001-2013
</metadata>
<g transform="translate(0.000000,70.000000) scale(0.100000,-0.100000)"
fill="#000000" stroke="none">
<path d="M0 350 l0 -350 350 0 350 0 0 350 0 350 -350 0 -350 0 0 -350z m380
319 c8 -12 21 -28 29 -36 12 -12 11 -16 -8 -29 -23 -17 -28 -44 -8 -44 7 0 20
12 30 28 17 27 17 27 23 5 4 -13 14 -23 25 -23 10 0 23 -9 29 -20 10 -18 8
-20 -20 -20 -19 0 -30 5 -30 14 0 9 -7 12 -20 9 -11 -3 -20 -9 -20 -14 0 -17
-38 -9 -45 9 -6 16 -7 16 -19 0 -16 -22 -33 -23 -52 -3 -9 8 -20 15 -26 15 -5
0 -8 -7 -4 -15 4 -12 -3 -15 -31 -15 -35 0 -36 0 -18 20 10 11 24 20 30 20 7
0 15 10 18 21 6 21 6 21 30 -6 15 -18 28 -25 36 -21 9 6 7 14 -10 32 l-22 23
27 36 c32 41 37 42 56 14z m-178 -366 c6 -7 13 -13 17 -13 3 0 5 49 3 110 -3
109 -3 110 20 110 23 0 23 -1 20 -110 -2 -60 0 -110 5 -110 4 0 24 20 43 45
19 24 37 44 40 45 3 0 23 -22 45 -50 22 -27 42 -50 45 -50 3 0 4 52 2 115 -3
114 -3 115 20 115 23 0 23 -1 20 -112 l-3 -112 21 19 c19 17 21 28 18 112 -2
51 1 93 6 93 10 0 1 -265 -10 -294 -5 -14 -4 -17 4 -12 22 13 12 0 -25 -35
-20 -18 -31 -26 -24 -16 7 9 9 17 4 17 -16 0 -32 -22 -26 -37 4 -9 -2 -16 -16
-20 -11 -3 -21 -12 -21 -19 0 -8 -4 -14 -10 -14 -5 0 -10 -6 -10 -13 0 -8 -9
-22 -20 -32 -19 -17 -21 -17 -40 0 -11 10 -20 24 -20 32 0 7 -4 13 -10 13 -5
0 -10 7 -10 15 0 16 9 19 34 9 8 -3 13 -11 10 -18 -3 -7 2 -19 11 -26 15 -12
16 -11 19 23 1 6 19 20 40 30 21 9 36 20 33 23 -3 3 -19 -2 -36 -10 -39 -21
-59 -20 -106 4 -49 25 -57 25 -26 1 14 -10 19 -21 13 -24 -5 -4 -17 4 -26 18
-9 14 -14 25 -10 25 4 0 1 7 -6 15 -7 8 -17 15 -22 15 -6 0 -5 -7 2 -15 21
-26 5 -16 -21 12 -13 14 -18 23 -10 18 11 -7 13 -4 5 11 -5 10 -9 84 -10 164
0 87 1 105 3 46 2 -55 9 -106 15 -113z m131 146 c7 -26 23 -24 43 6 9 14 21
22 26 19 6 -4 -3 -17 -18 -31 -16 -13 -24 -26 -19 -29 26 -12 39 -24 32 -30
-4 -4 -16 1 -27 11 -19 17 -21 17 -38 2 -21 -19 -32 -22 -32 -7 0 6 6 10 14
10 26 0 30 23 8 41 -25 19 -30 41 -8 33 8 -3 16 -14 19 -25z"/>
<path d="M345 648 c-8 -21 0 -48 14 -48 16 0 20 28 6 47 -13 17 -14 17 -20 1z"/>
<path d="M302 269 c-50 -61 -55 -98 -16 -124 41 -27 85 -29 122 -6 47 30 44
68 -10 132 -22 27 -44 49 -48 49 -3 0 -25 -23 -48 -51z m78 -66 c0 -8 -12 -13
-30 -13 -24 0 -30 4 -30 21 0 11 4 18 9 15 5 -3 12 4 15 17 l6 22 15 -25 c8
-14 14 -31 15 -37z"/>
<path d="M350 210 c-9 -6 -10 -10 -3 -10 6 0 15 5 18 10 8 12 4 12 -15 0z"/>
<path d="M190 249 c0 -8 7 -24 15 -35 11 -14 14 -15 14 -4 0 8 -6 24 -14 34
-11 15 -15 16 -15 5z"/>
<path d="M492 238 c-15 -15 -16 -38 -1 -38 8 0 7 -6 -2 -17 -11 -15 -11 -16 1
-6 7 7 15 26 17 43 3 34 2 35 -15 18z"/>
</g>
</svg>
