<?xml version="1.0" standalone="no"?>
<!DOCTYPE svg PUBLIC "-//W3C//DTD SVG 20010904//EN"
 "http://www.w3.org/TR/2001/REC-SVG-20010904/DTD/svg10.dtd">
<svg version="1.0" xmlns="http://www.w3.org/2000/svg"
 width="4340.000000pt" height="1500.000000pt" viewBox="0 0 4340.000000 1500.000000"
 preserveAspectRatio="xMidYMid meet">
<metadata>
Created by potrace 1.14, written by Peter Selinger 2001-2017
</metadata>
<g transform="translate(0.000000,1500.000000) scale(0.100000,-0.100000)"
fill="#000000" stroke="none">
<path d="M9090 7500 l0 -7500 55 0 55 0 0 7500 0 7500 -55 0 -55 0 0 -7500z"/>
<path d="M3330 13304 c-125 -149 -254 -276 -368 -362 -45 -35 -101 -87 -124
-115 -93 -118 -129 -271 -95 -404 l14 -52 -26 5 c-39 8 -147 -12 -199 -37 -63
-31 -117 -90 -143 -157 -17 -45 -22 -79 -23 -162 0 -58 2 -117 6 -131 l8 -27
42 15 c58 20 128 4 205 -46 32 -22 159 -141 283 -265 l225 -226 -180 -180
-180 -180 -256 257 c-243 245 -258 262 -298 344 -55 110 -65 209 -33 304 11
33 19 61 18 63 -6 5 -90 -29 -159 -65 -91 -48 -179 -134 -213 -207 -44 -97
-30 -259 31 -353 21 -31 19 -33 -17 -22 -18 5 -78 12 -133 16 -239 14 -473
-78 -652 -255 -120 -119 -188 -247 -200 -379 l-6 -63 -426 -2 -426 -3 0 -2230
c0 -2255 1 -2354 36 -2660 53 -469 166 -782 375 -1045 38 -47 154 -171 259
-275 272 -273 537 -489 889 -727 l161 -109 0 -92 c0 -79 4 -100 27 -150 49
-105 177 -207 320 -256 l55 -19 -18 49 c-20 52 -27 202 -10 227 6 11 40 -3
147 -61 76 -41 162 -86 189 -100 l50 -25 -30 -12 c-30 -11 -100 -9 -142 5 -20
6 -22 3 -28 -50 -4 -31 -5 -94 -3 -140 10 -198 136 -315 336 -315 42 0 53 -3
49 -14 -3 -8 -11 -41 -17 -74 -16 -79 0 -178 45 -269 42 -87 87 -139 189 -216
108 -81 218 -193 350 -354 60 -73 112 -133 116 -133 4 0 54 55 111 123 129
152 246 269 347 345 222 170 297 346 238 563 -7 25 -6 26 27 24 104 -6 220 36
277 101 64 73 75 113 75 266 0 75 -2 139 -5 142 -3 3 -25 -1 -48 -10 -26 -8
-58 -12 -81 -8 -39 6 -69 20 -61 27 5 4 380 195 380 193 0 -1 5 -28 10 -61 11
-65 0 -146 -27 -199 l-15 -29 29 7 c66 16 198 92 259 149 92 85 119 145 119
265 l1 92 149 98 c326 214 597 434 860 697 457 457 608 748 692 1330 16 111
17 284 13 2415 -2 1262 -4 2345 -4 2405 l-1 110 -335 5 -335 5 -6 55 c-18 169
-143 354 -321 477 -94 65 -135 85 -237 117 -134 42 -314 51 -434 21 l-27 -7
29 61 c16 34 34 90 41 125 34 184 -87 351 -322 446 -40 16 -74 28 -75 26 -2
-1 6 -28 17 -59 39 -111 17 -248 -59 -363 -21 -32 -147 -167 -280 -299 l-241
-240 -180 180 -181 181 238 235 c197 195 249 241 302 267 72 36 151 43 188 17
27 -19 30 -12 39 97 20 245 -93 392 -311 406 l-82 5 13 45 c38 124 -2 289 -98
409 -18 23 -80 80 -138 126 -127 103 -186 162 -332 336 -62 74 -117 136 -123
137 -5 2 -57 -54 -115 -122z m194 -595 c126 -115 213 -257 237 -384 24 -129
-7 -286 -82 -409 -18 -30 -79 -101 -136 -158 l-103 -103 -86 85 c-136 134
-199 234 -229 363 -41 171 2 334 130 494 58 73 168 173 190 173 6 0 42 -28 79
-61z m98 -1856 l178 -177 -27 -28 -27 -28 -305 0 -305 0 -28 27 -29 27 178
178 c98 98 180 178 183 178 3 0 85 -80 182 -177z m-1542 106 c86 -14 189 -50
256 -90 30 -18 105 -82 167 -141 l112 -107 -394 2 -394 2 -12 52 c-18 77 -63
162 -116 215 l-47 47 72 11 c39 6 78 13 86 14 36 8 210 5 270 -5z m3062 -9
c35 -7 66 -14 71 -17 4 -3 -12 -26 -37 -53 -51 -55 -91 -127 -110 -203 l-13
-52 -389 -2 -389 -3 116 114 c99 97 130 121 200 154 72 35 164 61 259 75 45 7
229 -2 292 -13z m1437 -472 c-1 -58 12 -3312 16 -3928 3 -537 1 -645 -20 -843
-24 -237 -92 -482 -186 -668 -211 -422 -805 -978 -1509 -1414 -420 -259 -963
-520 -1468 -705 -72 -26 -39 -34 -327 80 -742 296 -1437 705 -2000 1176 -245
205 -537 504 -644 659 -142 204 -242 505 -281 840 -6 50 -13 108 -15 130 -28
233 -30 413 -30 2520 0 1194 1 2173 3 2178 2 4 1456 7 3233 7 l3229 0 -1 -32z
m-3341 -7657 l112 -41 158 58 c124 47 159 56 165 46 4 -8 8 -56 9 -107 0 -172
-57 -292 -220 -455 l-102 -103 -32 22 c-61 44 -174 168 -215 238 -61 102 -86
186 -86 291 1 48 4 96 7 108 7 21 7 21 50 3 23 -11 93 -37 154 -60z"/>
<path d="M316 8363 c-6 -1781 -3 -2162 20 -2418 55 -623 164 -928 441 -1240
506 -568 1411 -1137 2412 -1515 l165 -62 165 62 c986 369 1911 949 2413 1514
160 181 248 331 318 544 80 245 119 517 140 982 10 224 14 3998 4 4024 -6 15
-272 16 -3038 16 l-3033 0 -7 -1907z m814 -223 c0 -1078 -2 -1960 -4 -1960 -2
0 -148 171 -325 379 l-321 380 0 1580 0 1581 325 0 325 0 0 -1960z m3832 -33
c2 -1096 1 -2005 -2 -2019 -4 -24 -27 0 -226 240 -736 890 -1349 1630 -1368
1650 l-22 22 -754 -909 -755 -910 -5 1932 c-3 1063 -3 1944 -1 1960 l3 27
1564 0 1564 0 2 -1993z m1268 423 l0 -1570 -277 -328 c-152 -180 -280 -331
-285 -337 -4 -5 -8 849 -8 1898 l0 1907 285 0 285 0 0 -1570z m-2072 -2505
l801 -960 1 -477 0 -477 -57 -39 c-262 -176 -682 -403 -1040 -561 -168 -74
-488 -201 -508 -201 -6 0 -73 24 -150 54 -437 167 -902 397 -1287 637 l-88 54
0 563 0 563 731 877 c770 923 779 934 790 930 4 -2 367 -435 807 -963z m2032
-242 c-29 -264 -93 -508 -178 -674 -66 -130 -126 -211 -248 -337 l-103 -107 0
310 0 310 266 308 c146 169 268 305 271 303 2 -3 -1 -53 -8 -113z m-5351 -276
l291 -337 0 -293 -1 -292 -142 145 c-78 80 -164 176 -191 214 -109 153 -193
361 -236 585 -18 90 -50 313 -50 345 0 15 6 8 329 -367z"/>
<path d="M2386 9593 c6 -58 12 -107 15 -118 2 -5 -1 -20 -5 -33 -4 -14 -3 -28
3 -36 8 -9 6 -22 -6 -46 -14 -30 -14 -36 -2 -59 16 -29 52 -39 75 -21 20 17
17 46 -7 69 l-20 19 22 16 c13 9 27 16 32 16 4 0 7 -30 5 -67 -3 -62 -5 -68
-26 -71 -30 -4 -26 -36 5 -40 12 -2 25 -12 28 -22 3 -10 15 -22 25 -25 10 -3
20 -16 22 -28 4 -28 38 -36 38 -9 0 25 18 32 86 32 57 0 66 -10 41 -45 -13
-17 -15 -17 -35 3 -26 26 -45 28 -66 6 -21 -21 -20 -40 4 -64 24 -24 41 -25
80 -5 18 9 31 11 35 5 3 -6 15 -10 26 -10 16 0 18 5 13 28 -7 29 -7 29 -5 51
1 11 5 10 21 -4 13 -12 18 -25 14 -40 -6 -23 18 -41 38 -29 11 7 408 -384 408
-401 0 -5 -57 -67 -127 -137 -114 -115 -128 -125 -150 -117 -20 7 -29 4 -50
-17 -15 -15 -23 -32 -20 -44 3 -14 -1 -20 -17 -22 -15 -2 -21 -10 -21 -30 -1
-16 -13 -40 -30 -58 l-29 -30 -26 25 c-30 29 -38 30 -60 10 -15 -13 -19 -12
-45 15 -28 29 -28 30 -10 50 18 20 18 21 -6 46 l-25 24 -38 -39 c-31 -32 -37
-43 -27 -54 15 -19 -7 -38 -35 -31 -27 7 -51 -20 -35 -39 16 -20 -20 -52 -37
-35 -9 9 -19 5 -42 -17 -35 -34 -37 -46 -10 -70 19 -17 21 -17 38 -2 17 16 20
15 46 -12 24 -25 26 -31 14 -50 -11 -18 -10 -24 14 -47 25 -26 25 -27 7 -45
-41 -41 -10 -119 48 -119 23 0 62 34 206 178 143 143 183 177 205 177 20 0 28
6 30 21 2 16 9 20 32 16 36 -5 64 32 54 73 -6 25 5 39 122 156 l129 129 127
-127 c123 -122 128 -129 122 -161 -8 -39 16 -72 52 -72 13 0 28 -9 34 -21 9
-15 18 -19 35 -15 19 5 49 -22 199 -174 149 -152 181 -180 205 -180 20 0 36 9
50 26 26 34 26 54 0 88 l-21 27 26 26 c25 25 25 27 9 45 -16 18 -15 20 14 50
29 29 33 30 48 15 12 -13 21 -14 35 -7 32 17 33 42 1 74 -26 25 -32 28 -46 16
-13 -11 -19 -11 -32 3 -14 13 -14 19 -3 32 11 13 10 19 -5 35 -17 18 -20 19
-35 5 -15 -14 -18 -14 -30 1 -11 12 -11 20 -3 33 10 15 5 24 -26 55 l-37 36
-22 -23 c-27 -28 -28 -43 -4 -56 15 -9 14 -13 -15 -42 -32 -32 -33 -33 -53
-14 -20 18 -21 18 -48 -8 l-28 -27 -33 34 c-18 19 -30 39 -27 44 10 16 -5 42
-24 42 -12 0 -17 8 -17 26 0 36 -26 58 -66 56 -30 -1 -46 11 -160 126 l-127
127 204 204 c125 125 208 201 215 196 17 -10 40 12 34 33 -2 10 5 26 16 36 21
19 21 19 21 -12 0 -17 -4 -34 -10 -37 -5 -3 -10 -10 -10 -16 0 -13 48 -11 52
2 2 7 15 4 35 -7 58 -34 122 15 87 65 -19 27 -49 27 -68 -1 -13 -18 -18 -19
-31 -8 -8 7 -15 21 -15 31 0 16 8 19 59 19 59 0 91 -17 76 -40 -3 -6 3 -10 14
-10 12 0 22 5 22 10 3 21 6 26 36 58 17 17 38 32 46 32 12 0 27 19 27 36 0 2
-11 4 -25 4 -24 0 -25 2 -25 70 0 39 3 70 8 70 4 0 18 -7 30 -16 l23 -16 -20
-15 c-39 -27 -21 -83 26 -83 40 0 57 65 27 108 -8 12 -10 22 -5 22 6 0 11 14
11 31 0 29 -1 30 -22 15 -12 -9 -35 -16 -50 -16 -23 0 -28 4 -28 26 0 24 2 25
48 22 43 -3 47 -1 47 19 0 12 4 25 8 29 4 4 7 29 7 56 l0 48 -48 0 c-27 0 -52
-3 -56 -7 -4 -4 -19 -7 -33 -8 -26 0 -27 -2 -24 -47 2 -43 0 -48 -18 -48 -17
0 -21 6 -21 33 0 17 4 39 10 47 12 19 -8 32 -32 19 -12 -6 -25 -6 -37 1 -26
14 -74 13 -89 -2 -7 -7 -12 -21 -12 -33 0 -45 60 -63 80 -24 9 16 14 18 26 8
8 -6 14 -20 14 -30 0 -17 -8 -19 -65 -19 -65 0 -70 3 -66 38 2 8 -5 12 -16 10
-10 -2 -19 -13 -21 -24 -2 -12 -14 -26 -28 -32 -13 -7 -24 -18 -24 -27 0 -8
-9 -15 -20 -15 -10 0 -24 -9 -30 -20 -9 -18 -8 -20 15 -20 20 0 25 -5 26 -25
5 -116 -6 -139 -46 -95 -17 18 -17 20 -1 20 21 0 37 39 25 61 -13 26 -39 31
-65 14 -28 -18 -32 -59 -9 -92 10 -14 12 -24 5 -28 -5 -3 -10 -18 -10 -33 0
-20 3 -23 12 -14 7 7 28 12 47 12 34 0 34 0 15 -21 -12 -13 -25 -18 -40 -15
-17 5 -24 1 -29 -14 -3 -11 -4 -24 -1 -28 3 -5 -86 -99 -197 -210 l-202 -202
-204 204 c-140 140 -202 209 -198 219 7 19 -15 39 -35 32 -8 -3 -23 3 -33 15
-18 20 -18 20 11 20 17 0 35 -5 42 -12 16 -16 27 15 14 39 -7 12 -6 26 5 46
19 37 9 75 -22 87 -33 13 -54 3 -62 -28 -5 -19 0 -30 18 -45 23 -18 23 -19 4
-33 -38 -28 -46 -19 -43 54 3 61 5 67 26 70 27 4 29 28 2 37 -26 8 -78 60 -82
82 -5 28 -36 28 -40 1 -3 -21 -9 -23 -70 -26 -38 -2 -68 1 -68 5 0 5 7 19 16
31 l16 23 15 -21 c32 -46 98 -7 75 44 -10 22 -18 26 -51 26 -22 0 -44 -6 -51
-15 -10 -12 -14 -12 -26 -1 -17 18 -59 9 -44 -8 5 -7 11 -28 12 -47 3 -29 0
-34 -20 -37 -23 -3 -24 -1 -20 45 3 46 2 48 -27 54 -16 4 -53 7 -81 8 l-51 1
3 -37z"/>
<path d="M3316 5800 c-73 -22 -112 -101 -104 -210 l5 -70 -39 0 c-81 0 -128
-57 -128 -153 1 -72 32 -144 124 -275 42 -61 88 -136 102 -166 35 -76 62 -211
70 -349 4 -64 9 -116 11 -113 2 2 8 59 14 127 18 233 45 313 157 479 98 144
130 209 139 278 12 101 -32 162 -121 170 l-54 4 10 36 c25 91 -20 207 -92 236
-45 18 -52 18 -94 6z"/>
<path d="M2873 5445 c-57 -40 -68 -144 -26 -258 14 -39 28 -91 30 -114 4 -38
2 -43 -24 -56 -54 -29 -85 -72 -91 -125 -4 -47 -3 -50 34 -78 80 -62 87 -71
80 -117 -19 -121 -18 -135 5 -176 12 -23 28 -41 35 -41 6 0 27 33 47 73 37 77
85 134 123 143 54 14 115 -56 168 -191 45 -118 45 -118 42 5 -6 209 -53 322
-232 560 -61 82 -119 168 -128 192 -9 24 -18 73 -20 111 -3 78 -12 93 -43 72z"/>
<path d="M3803 5453 c-9 -3 -13 -27 -13 -72 0 -37 -7 -87 -15 -112 -9 -24 -65
-109 -125 -189 -182 -240 -236 -371 -238 -575 -1 -106 1 -106 38 -5 48 131
114 207 170 195 37 -8 92 -74 126 -149 33 -76 48 -80 81 -21 26 46 29 86 9
141 -18 53 -13 74 26 107 97 82 91 73 84 120 -9 54 -25 78 -78 114 -38 26 -43
34 -41 64 1 19 14 63 28 99 38 95 43 167 15 224 -22 47 -45 67 -67 59z"/>
<path d="M3333 4399 c-28 -10 -43 -39 -43 -81 0 -43 -15 -58 -59 -58 -30 0
-43 9 -88 58 -52 54 -55 56 -68 38 -28 -37 -22 -92 13 -130 15 -16 68 -48 118
-71 51 -24 98 -53 107 -65 11 -16 14 -40 10 -103 -5 -69 -3 -85 11 -96 15 -12
19 -12 33 2 13 13 16 35 14 105 -2 105 -4 103 119 160 120 56 159 99 145 163
-13 58 -31 57 -89 -5 -49 -53 -56 -57 -91 -54 -37 3 -39 5 -50 53 -6 28 -15
56 -19 63 -12 21 -40 30 -63 21z"/>
<path d="M26450 8585 l0 -1395 140 0 140 0 0 615 c0 485 3 615 13 615 181 2
1941 -1 1944 -3 2 -2 3 -279 3 -615 l1 -612 139 0 140 0 0 1395 0 1395 -140 0
-141 0 1 -627 c0 -346 0 -636 0 -645 0 -17 -53 -18 -980 -18 l-980 0 0 23 c0
12 0 302 0 645 l0 622 -140 0 -140 0 0 -1395z"/>
<path d="M11333 9561 c2 -10 131 -335 285 -722 155 -387 337 -843 405 -1014
l123 -310 166 -3 c124 -2 168 1 175 10 6 7 70 148 143 313 73 165 238 539 367
830 130 292 239 539 243 550 10 28 -59 180 612 -1340 83 -187 154 -345 159
-351 6 -7 66 -11 176 -10 l167 1 161 405 c89 223 273 683 409 1023 135 340
246 622 246 626 0 15 -285 14 -297 -1 -6 -7 -140 -339 -298 -738 -369 -928
-398 -1000 -401 -997 -1 1 -130 290 -287 642 -157 352 -330 741 -385 865 -65
144 -107 227 -119 231 -10 4 -75 8 -145 8 l-128 1 -19 -38 c-11 -21 -187 -413
-391 -872 -205 -459 -373 -836 -374 -838 -2 -1 -157 386 -346 860 -189 475
-347 869 -353 876 -7 8 -50 12 -154 12 -137 0 -145 -1 -140 -19z"/>
<path d="M16115 9567 c-3 -6 -4 -471 -3 -1032 l3 -1020 1173 -2 1172 -2 0 134
0 135 -1035 0 -1035 0 0 345 0 345 885 0 886 0 -3 133 -3 132 -30 2 c-16 0
-414 2 -882 2 l-853 1 0 285 0 285 1030 0 1031 0 -3 133 -3 132 -1163 2 c-917
2 -1164 0 -1167 -10z"/>
<path d="M19953 9570 c-196 -21 -346 -81 -431 -174 -94 -104 -127 -214 -119
-406 6 -148 28 -229 84 -310 67 -95 171 -154 330 -184 125 -24 164 -25 858
-27 363 0 689 -5 725 -10 178 -24 255 -65 297 -156 23 -50 26 -70 26 -172 1
-124 -10 -178 -46 -232 -43 -64 -143 -100 -317 -113 -41 -3 -486 -6 -988 -6
l-913 0 3 -132 3 -133 955 0 c981 0 1035 2 1186 40 151 39 277 132 334 249 49
100 63 175 63 321 0 336 -126 499 -442 570 -122 28 -244 33 -916 34 -363 1
-678 4 -700 7 -63 8 -147 34 -183 56 -58 35 -76 86 -80 223 -3 110 -1 124 20
165 15 29 37 53 63 67 42 24 146 49 230 57 28 3 470 5 983 5 l933 1 -3 133 -3
132 -940 1 c-517 1 -973 -2 -1012 -6z"/>
<path d="M22830 9445 l0 -135 595 0 595 0 0 -899 0 -899 135 0 135 0 0 899 0
899 600 0 601 0 -3 133 -3 132 -1327 3 -1328 2 0 -135z"/>
<path d="M30655 9573 c-112 -7 -274 -36 -364 -65 -320 -101 -483 -294 -548
-648 -24 -133 -24 -506 1 -635 78 -413 300 -618 746 -691 135 -21 1001 -32
1223 -15 566 44 840 267 909 737 17 115 16 483 -1 589 -74 459 -341 677 -886
725 -99 8 -957 11 -1080 3z m1139 -269 c321 -43 483 -172 541 -429 25 -111 32
-454 11 -584 -26 -164 -78 -275 -166 -355 -60 -54 -188 -112 -305 -137 -94
-21 -132 -22 -613 -26 -321 -3 -556 -1 -630 6 -298 27 -464 116 -552 295 -57
114 -70 188 -77 416 -8 275 13 416 80 544 83 156 259 249 522 275 148 14 1074
11 1189 -5z"/>
<path d="M33674 9567 c-3 -8 -3 -333 -1 -723 4 -770 3 -756 62 -919 58 -161
196 -285 380 -344 195 -63 227 -65 900 -66 456 0 631 3 695 13 228 35 372 95
474 195 73 72 109 129 143 230 48 144 53 218 53 949 l0 677 -137 -2 -138 -2
-2 -684 c-2 -746 -5 -785 -59 -896 -46 -93 -133 -157 -261 -190 -120 -31 -261
-37 -833 -32 -613 4 -646 7 -770 63 -108 49 -161 110 -203 234 -21 64 -22 78
-27 785 l-5 720 -133 3 c-106 2 -133 0 -138 -11z"/>
<path d="M37935 9569 c-96 -9 -242 -47 -303 -78 -183 -94 -273 -299 -242 -556
28 -235 118 -351 325 -419 122 -40 205 -44 910 -45 374 -1 698 -4 720 -7 235
-28 322 -78 355 -203 15 -56 15 -211 0 -276 -28 -127 -112 -175 -334 -195 -63
-6 -504 -10 -1014 -10 l-903 0 3 -132 3 -133 920 0 c506 0 963 3 1015 8 414
32 600 219 600 602 0 349 -138 513 -490 581 -73 14 -188 17 -800 20 -393 3
-744 9 -780 14 -140 21 -192 49 -230 125 -22 44 -25 62 -24 160 1 127 14 169
65 208 98 73 165 77 1245 77 l915 0 -3 133 -3 132 -930 1 c-511 1 -970 -3
-1020 -7z"/>
<path d="M41054 9567 c-2 -7 -3 -471 -2 -1032 l3 -1020 1173 -3 1172 -2 0 135
0 135 -1035 0 -1035 0 0 345 0 345 883 2 882 3 0 130 0 130 -882 0 -883 0 0
288 0 287 1030 0 1030 0 0 129 c0 110 -2 130 -16 135 -9 4 -534 6 -1166 6
-894 -1 -1150 -3 -1154 -13z"/>
<path d="M12080 5805 l0 -435 70 0 70 0 2 351 3 351 388 -351 389 -351 74 0
74 0 0 435 0 435 -70 0 -70 0 0 -346 c1 -191 -1 -348 -3 -351 -2 -2 -178 154
-391 347 l-386 350 -75 0 -74 0 -1 -435z"/>
<path d="M13440 5805 l0 -435 495 0 495 0 0 64 c0 45 -4 64 -12 63 -7 0 -201
1 -430 1 l-418 2 0 130 0 130 363 2 362 3 3 63 3 62 -366 0 -365 0 0 110 0
110 428 2 427 3 3 63 3 62 -496 0 -495 0 0 -435z"/>
<path d="M14562 6232 c1 -6 80 -202 173 -436 l170 -427 79 3 79 3 64 145 c35
80 103 234 150 343 48 108 90 194 94 190 5 -5 75 -159 157 -343 l148 -335 80
-3 79 -2 155 391 c85 216 163 411 172 435 l18 44 -73 0 -72 0 -139 -350 c-77
-193 -143 -347 -147 -343 -7 7 -188 408 -279 616 l-34 77 -67 0 -67 0 -158
-355 -158 -356 -141 353 -141 353 -73 3 c-43 2 -72 -1 -69 -6z"/>
<path d="M16640 6235 c0 -2 131 -147 290 -322 l290 -317 0 -113 0 -113 65 0
65 0 0 116 0 116 247 271 c137 150 268 293 292 320 l44 47 -86 0 -86 0 -238
-260 -237 -260 -29 28 c-15 15 -124 132 -240 260 l-212 232 -82 0 c-46 0 -83
-2 -83 -5z"/>
<path d="M18272 6224 c-217 -46 -303 -184 -289 -463 9 -178 50 -265 156 -328
93 -56 141 -62 476 -59 288 2 303 3 365 26 49 18 79 37 122 80 78 78 102 155
102 325 0 258 -84 376 -297 419 -101 21 -537 21 -635 0z m540 -114 c206 -20
260 -87 260 -319 -1 -197 -58 -269 -231 -292 -104 -14 -509 -6 -568 11 -59 17
-118 71 -140 128 -25 66 -26 267 0 333 32 84 98 126 222 139 103 11 346 11
457 0z"/>
<path d="M19450 5806 l0 -436 65 0 65 0 0 165 0 165 263 0 262 0 165 -165 165
-165 95 0 95 1 -170 164 c-93 90 -168 165 -165 165 9 2 44 8 84 15 66 10 134
54 164 104 21 36 27 60 30 132 5 107 -7 149 -62 203 -78 79 -88 80 -603 84
l-453 3 0 -435z m925 279 c31 -15 43 -30 54 -60 17 -50 8 -128 -19 -155 -36
-36 -86 -40 -462 -40 l-368 0 0 141 0 140 378 -3 c354 -3 379 -4 417 -23z"/>
<path d="M20810 5805 l0 -435 69 0 69 0 1 132 c1 73 5 136 10 141 8 8 261 157
267 157 2 0 128 -97 280 -215 l276 -216 100 3 101 3 -317 247 -317 247 308
183 307 183 -112 3 -112 3 -391 -226 c-216 -124 -393 -225 -395 -225 -2 0 -4
101 -4 225 l0 225 -70 0 -70 0 0 -435z"/>
</g>
</svg>
