<?xml version="1.0" encoding="UTF-8"?>
<svg width="1075px" height="372px" viewBox="0 0 1075 372" version="1.1" xmlns="http://www.w3.org/2000/svg" xmlns:xlink="http://www.w3.org/1999/xlink">
    <!-- Generator: Sketch 43.2 (39069) - http://www.bohemiancoding.com/sketch -->
    <title>westhouse-logo-fix-this-now</title>
    <desc>Created with Sketch.</desc>
    <defs></defs>
    <g id="Page-1" stroke="none" stroke-width="1" fill="none" fill-rule="evenodd">
        <g id="westhouse-logo-fix-this-now" fill-rule="nonzero" fill="#000000">
            <g id="Group" transform="translate(537.561924, 185.771889) scale(-1, 1) rotate(-180.000000) translate(-537.561924, -185.771889) translate(0.123848, 0.000000)">
                <polygon id="Shape" points="225.031682 185.771889 225.031682 0 226.394009 0 227.756336 0 227.756336 185.771889 227.756336 371.543779 226.394009 371.543779 225.031682 371.543779"></polygon>
                <path d="M82.358871,329.534562 C79.2626728,325.843894 76.0673963,322.698157 73.2436636,320.567972 C72.1290323,319.701037 70.7419355,318.413018 70.172235,317.71947 C67.8686636,314.796659 66.9769585,311.006912 67.8191244,307.712558 L68.1658986,306.424539 L67.5218894,306.548387 C66.5558756,306.746544 63.8807604,306.251152 62.5927419,305.631912 C61.0322581,304.864055 59.6947005,303.40265 59.0506912,301.743088 C58.6296083,300.628456 58.5057604,299.78629 58.4809908,297.730415 C58.4809908,296.293779 58.53053,294.832373 58.6296083,294.485599 L58.827765,293.81682 L59.8680876,294.188364 C61.3047235,294.683756 63.0385945,294.287442 64.9458525,293.048963 C65.7384793,292.504032 68.8842166,289.556452 71.9556452,286.485023 L77.5288018,280.887097 L73.0702765,276.428571 L68.6117512,271.970046 L62.2707373,278.335829 C56.2517281,284.404378 55.8801843,284.825461 54.8894009,286.856567 C53.5270737,289.581221 53.2793779,292.03341 54.0720046,294.386521 C54.34447,295.203917 54.5426267,295.897465 54.5178571,295.947005 C54.3692396,296.070853 52.2885945,295.228687 50.5794931,294.336982 C48.3254608,293.148041 46.1457373,291.017857 45.3035714,289.209677 C44.2137097,286.807028 44.5604839,282.794355 46.0714286,280.466014 C46.5915899,279.698157 46.5420507,279.648618 45.6503456,279.921083 C45.2044931,280.044931 43.718318,280.218318 42.3559908,280.317396 C36.4360599,280.664171 30.639977,278.385369 26.2062212,274.001152 C23.233871,271.053571 21.5495392,267.883065 21.2523041,264.613479 L21.1036866,263.052995 L10.5518433,263.003456 L0,262.929147 L0,207.692972 C0,151.837558 0.0247695853,149.385369 0.891705069,141.805876 C2.20449309,130.18894 5.00345622,122.43606 10.1802995,115.921659 C11.1215438,114.757488 13.9948157,111.68606 16.5956221,109.110023 C23.3329493,102.347926 29.8968894,96.9976959 38.6157834,91.1025346 L42.6036866,88.4026498 L42.6036866,86.1238479 C42.6036866,84.1670507 42.702765,83.6468894 43.2724654,82.4084101 C44.4861751,79.8076037 47.656682,77.281106 51.1987327,76.0673963 L52.5610599,75.5967742 L52.1152074,76.8104839 C51.6198157,78.0985023 51.4464286,81.8139401 51.8675115,82.4331797 C52.016129,82.7056452 52.8582949,82.358871 55.5086406,80.922235 C57.391129,79.906682 59.5213134,78.7920507 60.1900922,78.4452765 L61.4285714,77.8260369 L60.6854839,77.5288018 C59.9423963,77.2563364 58.2085253,77.3058756 57.1682028,77.6526498 C56.6728111,77.8012673 56.6232719,77.7269585 56.4746544,76.4141705 C56.375576,75.6463134 56.3508065,74.0858295 56.4003456,72.9464286 C56.6480415,68.0420507 59.7690092,65.1440092 64.7229263,65.1440092 C65.7632488,65.1440092 66.0357143,65.0697005 65.9366359,64.797235 C65.8623272,64.5990783 65.6641705,63.781682 65.515553,62.9642857 C65.1192396,61.0074885 65.515553,58.5552995 66.6301843,56.3012673 C67.6705069,54.1463134 68.7851382,52.8582949 71.3116359,50.9510369 C73.9867512,48.9447005 76.7114055,46.1705069 79.9809908,42.1826037 C81.4671659,40.374424 82.7551843,38.8882488 82.8542627,38.8882488 C82.953341,38.8882488 84.1918203,40.250576 85.6036866,41.9349078 C88.7989631,45.6998848 91.6970046,48.5979263 94.1987327,50.4804147 C99.6975806,54.6912442 101.5553,59.0506912 100.093894,64.4256912 C99.9205069,65.0449309 99.9452765,65.0697005 100.762673,65.0201613 C103.33871,64.8715438 106.211982,65.9118664 107.623848,67.5218894 C109.209101,69.3300691 109.481567,70.3208525 109.481567,74.1105991 C109.481567,75.968318 109.432028,77.5535714 109.357719,77.6278802 C109.28341,77.7021889 108.738479,77.6031106 108.168779,77.3801843 C107.52477,77.1820276 106.732143,77.0829493 106.162442,77.1820276 C105.196429,77.3306452 104.453341,77.6774194 104.651498,77.8508065 C104.775346,77.9498848 114.06394,82.6808756 114.06394,82.6313364 C114.06394,82.6065668 114.187788,81.937788 114.311636,81.1203917 C114.584101,79.5103687 114.311636,77.5040323 113.642857,76.1912442 L113.271313,75.4729263 L113.989631,75.6463134 C115.624424,76.0426267 118.894009,77.9251152 120.404954,79.3369816 C122.683756,81.4423963 123.352535,82.9285714 123.352535,85.9009217 L123.377304,88.1797235 L127.067972,90.6071429 C135.142857,95.9078341 141.855415,101.357143 148.369816,107.871544 C159.689516,119.191244 163.429724,126.399194 165.510369,140.815092 C165.906682,143.564516 165.931452,147.849654 165.832373,200.633641 C165.782834,231.892857 165.733295,258.718318 165.733295,260.204493 L165.708525,262.929147 L157.410714,263.052995 L149.112903,263.176843 L148.964286,264.539171 C148.518433,268.72523 145.422235,273.307604 141.013249,276.354263 C138.684908,277.964286 137.669355,278.459677 135.142857,279.252304 C131.823733,280.292627 127.365207,280.515553 124.392857,279.772465 L123.724078,279.599078 L124.442396,281.110023 C124.83871,281.952189 125.284562,283.339286 125.457949,284.206221 C126.300115,288.763825 123.302995,292.900346 117.482143,295.253456 C116.491359,295.64977 115.649194,295.947005 115.624424,295.897465 C115.574885,295.872696 115.773041,295.203917 116.045507,294.43606 C117.011521,291.686636 116.46659,288.293203 114.584101,285.4447 C114.06394,284.652074 110.942972,281.30818 107.648618,278.038594 L101.679147,272.093894 L97.2206221,276.552419 L92.7373272,281.035714 L98.6324885,286.856567 C103.512097,291.686636 104.800115,292.826037 106.112903,293.470046 C107.896313,294.361751 109.853111,294.535138 110.769585,293.891129 C111.438364,293.420507 111.512673,293.593894 111.735599,296.293779 C112.230991,302.362327 109.432028,306.003456 104.032258,306.35023 L102.001152,306.474078 L102.323157,307.58871 C103.264401,310.660138 102.273618,314.74712 99.8957373,317.71947 C99.4498848,318.289171 97.9141705,319.701037 96.4775346,320.840438 C93.3317972,323.391705 91.8703917,324.853111 88.2540323,329.163018 C86.718318,330.995968 85.3559908,332.531682 85.2073733,332.556452 C85.0835253,332.605991 83.7955069,331.218894 82.358871,329.534562 Z M87.1641705,314.796659 C90.2851382,311.948157 92.4400922,308.430876 93.0345622,305.285138 C93.6290323,302.089862 92.8611751,298.201037 91.0034562,295.154378 C90.5576037,294.41129 89.046659,292.65265 87.6347926,291.240783 L85.0835253,288.689516 L82.953341,290.794931 C79.5846774,294.114055 78.0241935,296.591014 77.281106,299.78629 C76.265553,304.021889 77.3306452,308.059332 80.5011521,312.022465 C81.937788,313.830645 84.6624424,316.307604 85.2073733,316.307604 C85.3559908,316.307604 86.2476959,315.614055 87.1641705,314.796659 Z M89.5915899,268.824309 L94.000576,264.440092 L93.3317972,263.746544 L92.6630184,263.052995 L85.1082949,263.052995 L77.5535714,263.052995 L76.860023,263.721774 L76.1417051,264.390553 L80.5506912,268.799539 C82.9781106,271.226959 85.0092166,273.208525 85.0835253,273.208525 C85.1578341,273.208525 87.1889401,271.226959 89.5915899,268.824309 Z M51.3968894,271.449885 C53.5270737,271.103111 56.078341,270.211406 57.7379032,269.220622 C58.4809908,268.77477 60.3387097,267.189516 61.874424,265.728111 L64.6486175,263.077765 L54.8894009,263.127304 L45.1301843,263.176843 L44.8329493,264.464862 C44.3870968,266.37212 43.2724654,268.477535 41.9596774,269.790323 L40.7955069,270.954493 L42.5789171,271.226959 C43.5449309,271.375576 44.5109447,271.548963 44.7091014,271.573733 C45.6008065,271.771889 49.9107143,271.697581 51.3968894,271.449885 Z M127.241359,271.226959 C128.108295,271.053571 128.876152,270.880184 129,270.805876 C129.099078,270.731567 128.702765,270.161866 128.083525,269.493088 C126.820276,268.13076 125.829493,266.34735 125.358871,264.464862 L125.036866,263.176843 L115.401498,263.127304 L105.766129,263.052995 L108.639401,265.876728 C111.09159,268.279378 111.859447,268.873848 113.593318,269.691244 C115.376728,270.55818 117.65553,271.202189 120.008641,271.548963 C121.123272,271.72235 125.680876,271.499424 127.241359,271.226959 Z M162.835253,259.535714 C162.810484,258.099078 163.132488,177.498848 163.231567,162.240783 C163.305876,148.939516 163.256336,146.264401 162.736175,141.360023 C162.141705,135.489631 160.457373,129.421083 158.129032,124.81394 C152.90265,114.361175 138.189516,100.589286 120.751728,89.7897465 C110.348502,83.374424 96.8986175,76.9095622 84.389977,72.3271889 C82.6065668,71.6831797 83.4239631,71.485023 76.2903226,74.3087558 C57.9112903,81.640553 40.6964286,91.7713134 26.7511521,103.437788 C20.6826037,108.515553 13.4498848,115.921659 10.7995392,119.760945 C7.28225806,124.81394 4.80529954,132.269585 3.83928571,140.567396 C3.6906682,141.805876 3.51728111,143.242512 3.46774194,143.787442 C2.77419355,149.558756 2.72465438,154.017281 2.72465438,206.206797 C2.72465438,235.781682 2.74942396,260.031106 2.79896313,260.154954 C2.8485023,260.254032 38.8634793,260.328341 82.8790323,260.328341 L162.860023,260.328341 L162.835253,259.535714 Z M80.0800691,69.875 L82.8542627,68.859447 L86.7678571,70.2960829 C89.8392857,71.4602535 90.7062212,71.6831797 90.8548387,71.4354839 C90.9539171,71.2373272 91.0529954,70.0483871 91.077765,68.7851382 C91.077765,64.5247696 89.6658986,61.5524194 85.6284562,57.514977 L83.1019585,54.9637097 L82.3093318,55.5086406 C80.7983871,56.5985023 77.999424,59.6699309 76.983871,61.4038018 C75.4729263,63.9302995 74.8536866,66.0109447 74.8536866,68.6117512 C74.8784562,69.8006912 74.952765,70.9896313 75.0270737,71.2868664 C75.2004608,71.8070276 75.2004608,71.8070276 76.265553,71.3611751 C76.8352535,71.0887097 78.5691244,70.4447005 80.0800691,69.875 Z" id="Shape"></path>
                <path d="M7.70334101,207.148041 C7.5547235,163.03341 7.62903226,153.596198 8.19873272,147.255184 C9.56105991,131.823733 12.2609447,124.269009 19.1221198,116.540899 C31.65553,102.471774 54.0720046,88.3778802 78.8663594,79.014977 L82.953341,77.4792627 L87.0403226,79.014977 C111.463134,88.1549539 134.375,102.521313 146.809332,116.516129 C150.772465,120.999424 152.952189,124.714862 154.68606,129.990783 C156.667627,136.059332 157.633641,142.796659 158.153802,154.314516 C158.401498,159.862903 158.500576,253.343318 158.25288,253.987327 C158.104263,254.358871 151.515553,254.383641 83.0028802,254.383641 L7.87672811,254.383641 L7.70334101,207.148041 Z M27.8657834,201.624424 C27.8657834,174.922811 27.8162442,153.076037 27.7667051,153.076037 C27.7171659,153.076037 24.1008065,157.311636 19.7165899,162.46371 L11.765553,171.876152 L11.765553,211.012097 L11.765553,250.172811 L19.8156682,250.172811 L27.8657834,250.172811 L27.8657834,201.624424 Z M122.782834,200.807028 C122.832373,173.659562 122.807604,151.144009 122.733295,150.797235 C122.634217,150.202765 122.064516,150.797235 117.135369,156.741935 C98.9049539,178.786866 83.7211982,197.116359 83.250576,197.611751 L82.7056452,198.156682 L64.0293779,175.641129 L45.328341,153.100806 L45.2044931,200.955645 C45.1301843,227.285714 45.1301843,249.107719 45.1797235,249.504032 L45.2540323,250.172811 L83.9936636,250.172811 L122.733295,250.172811 L122.782834,200.807028 Z M154.190668,211.284562 L154.190668,172.396313 L147.329493,164.271889 C143.564516,159.813364 140.394009,156.073157 140.270161,155.924539 C140.171083,155.800691 140.072005,176.953917 140.072005,202.937212 L140.072005,250.172811 L147.131336,250.172811 L154.190668,250.172811 L154.190668,211.284562 Z M102.868088,149.236751 L122.708525,125.457949 L122.733295,113.642857 L122.733295,101.827765 L121.321429,100.861751 C114.831797,96.5023041 104.428571,90.8796083 95.5610599,86.9660138 C91.3997696,85.1330645 83.4735023,81.9873272 82.9781106,81.9873272 C82.8294931,81.9873272 81.1699309,82.5817972 79.2626728,83.3248848 C68.4383641,87.4614055 56.9205069,93.1584101 47.3842166,99.1031106 L45.2044931,100.440668 L45.2044931,114.385945 L45.2044931,128.331221 L63.3110599,150.054147 C82.3836406,172.916475 82.6065668,173.18894 82.8790323,173.089862 C82.9781106,173.040323 91.96947,162.315092 102.868088,149.236751 Z M153.199885,143.242512 C152.481567,136.703341 150.896313,130.659562 148.790899,126.547811 C147.156106,123.327765 145.669931,121.321429 142.648041,118.200461 L140.096774,115.550115 L140.096774,123.228687 L140.096774,130.907258 L146.685484,138.53629 C150.301843,142.72235 153.323733,146.091014 153.398041,146.041475 C153.447581,145.967166 153.373272,144.728687 153.199885,143.242512 Z M20.6578341,136.406106 L27.8657834,128.058756 L27.8657834,120.801267 L27.8410138,113.568548 L24.3237327,117.160138 C22.3917051,119.141705 20.2615207,121.519585 19.5927419,122.460829 C16.8928571,126.250576 14.812212,131.40265 13.7471198,136.951037 C13.3012673,139.1803 12.5086406,144.703917 12.5086406,145.496544 C12.5086406,145.868088 12.6572581,145.6947 20.6578341,136.406106 Z" id="Shape"></path>
                <path d="M58.9763825,237.614631 C59.125,236.177995 59.2736175,234.964286 59.3479263,234.69182 C59.3974654,234.567972 59.3231567,234.196429 59.2240783,233.874424 C59.125,233.52765 59.1497696,233.180876 59.2983871,232.982719 C59.4965438,232.759793 59.4470046,232.437788 59.1497696,231.843318 C58.8029954,231.10023 58.8029954,230.951613 59.1002304,230.381912 C59.4965438,229.663594 60.3882488,229.415899 60.9579493,229.861751 C61.453341,230.282834 61.3790323,231.001152 60.7845622,231.570853 L60.2891705,232.041475 L60.8341014,232.437788 C61.156106,232.660714 61.5028802,232.834101 61.6267281,232.834101 C61.7258065,232.834101 61.8001152,232.091014 61.750576,231.174539 C61.6762673,229.638825 61.6267281,229.490207 61.1065668,229.415899 C60.3634793,229.31682 60.4625576,228.524194 61.2304147,228.425115 C61.5276498,228.375576 61.8496544,228.12788 61.9239631,227.880184 C61.9982719,227.632488 62.2955069,227.335253 62.5432028,227.260945 C62.7908986,227.186636 63.0385945,226.864631 63.0881336,226.567396 C63.187212,225.873848 64.0293779,225.675691 64.0293779,226.34447 C64.0293779,226.96371 64.4752304,227.137097 66.1595622,227.137097 C67.5714286,227.137097 67.7943548,226.889401 67.1751152,226.022465 C66.8531106,225.601382 66.8035714,225.601382 66.3081797,226.096774 C65.6641705,226.740783 65.1935484,226.790323 64.6733871,226.245392 C64.1532258,225.72523 64.1779954,225.254608 64.7724654,224.660138 C65.3669355,224.065668 65.7880184,224.040899 66.7540323,224.53629 C67.1998848,224.759217 67.5218894,224.808756 67.6209677,224.660138 C67.6952765,224.511521 67.9925115,224.412442 68.264977,224.412442 C68.6612903,224.412442 68.7108295,224.53629 68.5869816,225.105991 C68.4135945,225.824309 68.4135945,225.824309 68.4631336,226.36924 C68.4879032,226.641705 68.5869816,226.616935 68.9832949,226.270161 C69.3052995,225.972926 69.4291475,225.650922 69.3300691,225.279378 C69.1814516,224.709677 69.7759217,224.263825 70.2713134,224.56106 C70.5437788,224.734447 80.3773041,215.049539 80.3773041,214.628456 C80.3773041,214.504608 78.9654378,212.968894 77.2315668,211.235023 C74.4078341,208.386521 74.0610599,208.138825 73.516129,208.336982 C73.0207373,208.510369 72.7978111,208.43606 72.2776498,207.915899 C71.906106,207.544355 71.7079493,207.123272 71.7822581,206.826037 C71.8565668,206.479263 71.7574885,206.330645 71.3611751,206.281106 C70.9896313,206.231567 70.8410138,206.03341 70.8410138,205.538018 C70.8162442,205.141705 70.5190092,204.547235 70.0979263,204.101382 L69.3796083,203.358295 L68.7355991,203.977535 C67.9925115,204.695853 67.7943548,204.720622 67.249424,204.22523 C66.8778802,203.903226 66.7788018,203.927995 66.1347926,204.596774 C65.4412442,205.315092 65.4412442,205.339862 65.8870968,205.835253 C66.3329493,206.330645 66.3329493,206.355415 65.7384793,206.974654 L65.1192396,207.569124 L64.1779954,206.603111 C63.4101382,205.810484 63.2615207,205.538018 63.5092166,205.265553 C63.8807604,204.794931 63.3358295,204.324309 62.6422811,204.497696 C61.9735023,204.671083 61.3790323,204.002304 61.7753456,203.531682 C62.171659,203.03629 61.2799539,202.243664 60.858871,202.664747 C60.6359447,202.887673 60.3882488,202.788594 59.8185484,202.243664 C58.9516129,201.401498 58.9020737,201.104263 59.5708525,200.509793 C60.0414747,200.08871 60.0910138,200.08871 60.5120968,200.460253 C60.9331797,200.856567 61.0074885,200.831797 61.6514977,200.163018 C62.2459677,199.543779 62.2955069,199.395161 61.9982719,198.924539 C61.7258065,198.478687 61.750576,198.330069 62.3450461,197.760369 C62.9642857,197.116359 62.9642857,197.09159 62.5184332,196.645737 C61.5028802,195.630184 62.2707373,193.698157 63.7073733,193.698157 C64.2770737,193.698157 65.2430876,194.540323 68.8099078,198.107143 C72.3519585,201.649194 73.3427419,202.491359 73.8876728,202.491359 C74.3830645,202.491359 74.5812212,202.639977 74.6307604,203.011521 C74.6802995,203.407834 74.8536866,203.506912 75.4233871,203.407834 C76.3150922,203.283986 77.0086406,204.200461 76.7609447,205.216014 C76.6123272,205.835253 76.8847926,206.182028 79.7828341,209.080069 L82.9781106,212.275346 L86.1238479,209.129608 C89.1705069,206.107719 89.2943548,205.934332 89.1457373,205.141705 C88.9475806,204.175691 89.5420507,203.358295 90.4337558,203.358295 C90.7557604,203.358295 91.1273041,203.135369 91.2759217,202.838134 C91.4988479,202.46659 91.7217742,202.367512 92.1428571,202.46659 C92.6134793,202.590438 93.3565668,201.921659 97.0720046,198.156682 C100.762673,194.391705 101.5553,193.698157 102.14977,193.698157 C102.645161,193.698157 103.041475,193.921083 103.388249,194.342166 C104.032258,195.184332 104.032258,195.679724 103.388249,196.521889 L102.868088,197.190668 L103.512097,197.834677 C104.131336,198.453917 104.131336,198.503456 103.735023,198.949309 C103.33871,199.395161 103.363479,199.4447 104.081797,200.187788 C104.800115,200.906106 104.899194,200.930876 105.270737,200.559332 C105.567972,200.237327 105.790899,200.212558 106.137673,200.385945 C106.9303,200.807028 106.955069,201.426267 106.162442,202.218894 C105.518433,202.838134 105.369816,202.912442 105.023041,202.615207 C104.701037,202.342742 104.552419,202.342742 104.230415,202.689516 C103.883641,203.011521 103.883641,203.160138 104.156106,203.482143 C104.428571,203.804147 104.403802,203.952765 104.032258,204.349078 C103.611175,204.794931 103.536866,204.8197 103.165323,204.472926 C102.793779,204.126152 102.71947,204.126152 102.422235,204.497696 C102.14977,204.794931 102.14977,204.993088 102.347926,205.315092 C102.595622,205.686636 102.471774,205.909562 101.703917,206.677419 L100.787442,207.569124 L100.242512,206.999424 C99.5737327,206.305876 99.5489631,205.934332 100.143433,205.612327 C100.514977,205.389401 100.490207,205.290323 99.7718894,204.572005 C98.9792627,203.779378 98.9544931,203.754608 98.4591014,204.22523 C97.9637097,204.671083 97.9389401,204.671083 97.2701613,204.027074 L96.5766129,203.358295 L95.7592166,204.200461 C95.3133641,204.671083 95.016129,205.166475 95.0904378,205.290323 C95.3381336,205.686636 94.9665899,206.330645 94.4959677,206.330645 C94.1987327,206.330645 94.0748848,206.528802 94.0748848,206.974654 C94.0748848,207.866359 93.4308756,208.41129 92.4400922,208.361751 C91.6970046,208.336982 91.3006912,208.634217 88.4769585,211.482719 L85.3312212,214.628456 L90.3842166,219.681452 C93.4804147,222.77765 95.5362903,224.660138 95.7096774,224.53629 C96.1307604,224.288594 96.7004608,224.833525 96.5518433,225.353687 C96.5023041,225.601382 96.6756912,225.997696 96.9481567,226.245392 C97.468318,226.716014 97.468318,226.716014 97.468318,225.948157 C97.468318,225.527074 97.3692396,225.105991 97.2206221,225.031682 C97.0967742,224.957373 96.9729263,224.783986 96.9729263,224.635369 C96.9729263,224.313364 98.1618664,224.362903 98.2609447,224.684908 C98.3104839,224.858295 98.6324885,224.783986 99.1278802,224.511521 C100.564516,223.669355 102.14977,224.883065 101.282834,226.121544 C100.812212,226.790323 100.069124,226.790323 99.5985023,226.096774 C99.2764977,225.650922 99.1526498,225.626152 98.8306452,225.898618 C98.6324885,226.072005 98.4591014,226.418779 98.4591014,226.666475 C98.4591014,227.062788 98.6572581,227.137097 99.9205069,227.137097 C101.381912,227.137097 102.174539,226.716014 101.802995,226.146313 C101.728687,225.997696 101.877304,225.898618 102.14977,225.898618 C102.447005,225.898618 102.6947,226.022465 102.6947,226.146313 C102.769009,226.666475 102.843318,226.790323 103.586406,227.582949 C104.007488,228.004032 104.52765,228.375576 104.725806,228.375576 C105.023041,228.375576 105.394585,228.846198 105.394585,229.267281 C105.394585,229.31682 105.12212,229.366359 104.775346,229.366359 C104.180876,229.366359 104.156106,229.415899 104.156106,231.10023 C104.156106,232.066244 104.230415,232.834101 104.354263,232.834101 C104.453341,232.834101 104.800115,232.660714 105.09735,232.437788 L105.667051,232.041475 L105.171659,231.669931 C104.205645,231.001152 104.651498,229.614055 105.815668,229.614055 C106.806452,229.614055 107.227535,231.224078 106.484447,232.289171 C106.28629,232.586406 106.236751,232.834101 106.360599,232.834101 C106.509217,232.834101 106.633065,233.180876 106.633065,233.601959 C106.633065,234.320276 106.608295,234.345046 106.088134,233.973502 C105.790899,233.750576 105.221198,233.577189 104.849654,233.577189 C104.279954,233.577189 104.156106,233.676267 104.156106,234.221198 C104.156106,234.815668 104.205645,234.840438 105.345046,234.766129 C106.410138,234.69182 106.509217,234.741359 106.509217,235.236751 C106.509217,235.533986 106.608295,235.855991 106.707373,235.955069 C106.806452,236.054147 106.88076,236.673387 106.88076,237.342166 L106.88076,238.531106 L105.69182,238.531106 C105.023041,238.531106 104.403802,238.456797 104.304724,238.357719 C104.205645,238.258641 103.834101,238.184332 103.487327,238.159562 C102.843318,238.159562 102.818548,238.110023 102.892857,236.995392 C102.942396,235.9303 102.892857,235.806452 102.447005,235.806452 C102.025922,235.806452 101.926843,235.955069 101.926843,236.623848 C101.926843,237.044931 102.025922,237.589862 102.174539,237.788018 C102.471774,238.258641 101.976382,238.580645 101.381912,238.258641 C101.084677,238.110023 100.762673,238.110023 100.465438,238.28341 C99.8214286,238.630184 98.6324885,238.605415 98.2609447,238.233871 C98.0875576,238.060484 97.9637097,237.71371 97.9637097,237.416475 C97.9637097,236.301843 99.4498848,235.855991 99.9452765,236.822005 C100.168203,237.218318 100.292051,237.267857 100.589286,237.020161 C100.787442,236.871544 100.93606,236.52477 100.93606,236.277074 C100.93606,235.855991 100.737903,235.806452 99.3260369,235.806452 C97.7160138,235.806452 97.5921659,235.88076 97.6912442,236.747696 C97.7407834,236.945853 97.5673963,237.044931 97.2949309,236.995392 C97.047235,236.945853 96.8243088,236.673387 96.7747696,236.400922 C96.7252304,236.103687 96.4279954,235.756912 96.0812212,235.608295 C95.7592166,235.434908 95.4867512,235.162442 95.4867512,234.939516 C95.4867512,234.741359 95.2638249,234.567972 94.9913594,234.567972 C94.7436636,234.567972 94.3968894,234.345046 94.2482719,234.072581 C94.0253456,233.626728 94.0501152,233.577189 94.6198157,233.577189 C95.1152074,233.577189 95.2390553,233.453341 95.2638249,232.957949 C95.3876728,230.084677 95.1152074,229.514977 94.124424,230.604839 C93.703341,231.050691 93.703341,231.10023 94.0996544,231.10023 C94.6198157,231.10023 95.016129,232.066244 94.718894,232.611175 C94.3968894,233.255184 93.7528802,233.379032 93.108871,232.957949 C92.4153226,232.512097 92.3162442,231.496544 92.8859447,230.679147 C93.1336406,230.332373 93.1831797,230.084677 93.0097926,229.985599 C92.8859447,229.91129 92.7620968,229.539747 92.7620968,229.168203 C92.7620968,228.672811 92.8364055,228.598502 93.0593318,228.821429 C93.2327189,228.994816 93.7528802,229.118664 94.2235023,229.118664 C95.0656682,229.118664 95.0656682,229.118664 94.5950461,228.598502 C94.2978111,228.276498 93.9758065,228.15265 93.6042627,228.226959 C93.1831797,228.350806 93.0097926,228.251728 92.8859447,227.880184 C92.8116359,227.607719 92.7868664,227.285714 92.8611751,227.186636 C92.9354839,227.062788 90.7309908,224.734447 87.9815668,221.985023 L82.9781106,216.981567 L77.9251152,222.034562 C74.4573733,225.502304 72.921659,227.211406 73.0207373,227.459101 C73.1941244,227.929724 72.6491935,228.425115 72.1538018,228.251728 C71.9556452,228.177419 71.5841014,228.326037 71.3364055,228.623272 C70.890553,229.118664 70.890553,229.118664 71.608871,229.118664 C72.0299539,229.118664 72.4758065,228.994816 72.6491935,228.821429 C73.0455069,228.425115 73.3179724,229.192972 72.9959677,229.787442 C72.8225806,230.084677 72.8473502,230.431452 73.1198157,230.926843 C73.5904378,231.843318 73.3427419,232.784562 72.5748848,233.081797 C71.7574885,233.403802 71.2373272,233.156106 71.0391705,232.388249 C70.9153226,231.917627 71.0391705,231.645161 71.485023,231.273618 C72.0547235,230.827765 72.0547235,230.802995 71.5841014,230.456221 C70.6428571,229.762673 70.4447005,229.985599 70.5190092,231.793779 C70.593318,233.304724 70.6428571,233.453341 71.1630184,233.52765 C71.8317972,233.626728 71.8813364,234.221198 71.2125576,234.444124 C70.5685484,234.642281 69.28053,235.9303 69.1814516,236.47523 C69.0576037,237.168779 68.2897465,237.168779 68.1906682,236.5 C68.1163594,235.979839 67.9677419,235.9303 66.4567972,235.855991 C65.515553,235.806452 64.7724654,235.88076 64.7724654,235.979839 C64.7724654,236.103687 64.9458525,236.450461 65.1687788,236.747696 L65.5650922,237.317396 L65.9366359,236.797235 C66.7292627,235.657834 68.3640553,236.623848 67.7943548,237.887097 C67.546659,238.432028 67.3485023,238.531106 66.531106,238.531106 C65.9861751,238.531106 65.4412442,238.382488 65.2678571,238.159562 C65.0201613,237.862327 64.9210829,237.862327 64.6238479,238.134793 C64.202765,238.580645 63.1624424,238.357719 63.5339862,237.936636 C63.6578341,237.763249 63.8064516,237.243088 63.8312212,236.772465 C63.90553,236.054147 63.8312212,235.9303 63.3358295,235.855991 C62.766129,235.781682 62.7413594,235.831221 62.8404378,236.970622 C62.9147465,238.110023 62.889977,238.159562 62.171659,238.30818 C61.7753456,238.407258 60.858871,238.481567 60.1653226,238.506336 L58.9020737,238.531106 L58.9763825,237.614631 Z" id="Shape"></path>
                <path d="M82.0120968,143.663594 C80.2039171,143.118664 79.2379032,141.161866 79.4360599,138.461982 L79.5599078,136.728111 L78.593894,136.728111 C76.5875576,136.728111 75.4233871,135.316244 75.4233871,132.938364 C75.4481567,131.154954 76.2160138,129.371544 78.4948157,126.126728 C79.5351382,124.615783 80.6745392,122.758065 81.0213134,122.014977 C81.8882488,120.132488 82.5570276,116.788594 82.7551843,113.370392 C82.8542627,111.785138 82.9781106,110.49712 83.0276498,110.571429 C83.0771889,110.620968 83.2258065,112.032834 83.374424,113.717166 C83.8202765,119.488479 84.4890553,121.470046 87.2632488,125.581797 C89.6906682,129.148618 90.4832949,130.758641 90.7062212,132.467742 C91.0034562,134.96947 89.9135945,136.480415 87.7091014,136.678571 L86.3715438,136.77765 L86.6192396,137.669355 C87.2384793,139.923387 86.1238479,142.796659 84.3404378,143.514977 C83.2258065,143.960829 83.0524194,143.960829 82.0120968,143.663594 Z" id="Shape"></path>
                <path d="M71.0391705,134.870392 C69.6273041,133.879608 69.3548387,131.303571 70.3951613,128.479839 C70.7419355,127.513825 71.0887097,126.225806 71.1382488,125.656106 C71.2373272,124.714862 71.187788,124.591014 70.5437788,124.269009 C69.2062212,123.550691 68.4383641,122.485599 68.2897465,121.172811 C68.1906682,120.008641 68.2154378,119.934332 69.1319124,119.240783 C71.1134793,117.705069 71.2868664,117.482143 71.1134793,116.342742 C70.6428571,113.345622 70.6676267,112.998848 71.2373272,111.983295 C71.5345622,111.413594 71.9308756,110.967742 72.1042627,110.967742 C72.2528802,110.967742 72.7730415,111.785138 73.2684332,112.775922 C74.1849078,114.68318 75.3738479,116.095046 76.3150922,116.317972 C77.6526498,116.664747 79.1635945,114.930876 80.4763825,111.586982 C81.5910138,108.664171 81.5910138,108.664171 81.5167051,111.710829 C81.3680876,116.887673 80.2039171,119.686636 75.7701613,125.581797 C74.2592166,127.612903 72.8225806,129.743088 72.5996544,130.337558 C72.3767281,130.932028 72.1538018,132.145737 72.1042627,133.086982 C72.0299539,135.019009 71.8070276,135.390553 71.0391705,134.870392 Z" id="Shape"></path>
                <path d="M94.0748848,135.068548 C93.8519585,134.99424 93.7528802,134.39977 93.7528802,133.285138 C93.7528802,132.368664 93.5794931,131.130184 93.3813364,130.510945 C93.1584101,129.916475 91.7713134,127.81106 90.2851382,125.829493 C85.7770737,119.884793 84.4395161,116.639977 84.389977,111.586982 C84.3652074,108.961406 84.4147465,108.961406 85.3312212,111.463134 C86.5201613,114.707949 88.1549539,116.590438 89.5420507,116.293203 C90.4585253,116.095046 91.8208525,114.460253 92.6630184,112.602535 C93.4804147,110.720046 93.8519585,110.620968 94.6693548,112.082373 C95.3133641,113.221774 95.3876728,114.212558 94.8922811,115.574885 C94.4464286,116.887673 94.5702765,117.407834 95.5362903,118.22523 C97.9389401,120.256336 97.7903226,120.03341 97.6169355,121.197581 C97.3940092,122.535138 96.9976959,123.129608 95.6849078,124.021313 C94.7436636,124.665323 94.6198157,124.863479 94.6693548,125.606567 C94.6941244,126.077189 95.016129,127.167051 95.3629032,128.058756 C96.3041475,130.411866 96.4279954,132.195276 95.734447,133.607143 C95.1895161,134.771313 94.6198157,135.266705 94.0748848,135.068548 Z" id="Shape"></path>
                <path d="M82.4331797,108.961406 C81.7396313,108.71371 81.3680876,107.995392 81.3680876,106.955069 C81.3680876,105.889977 80.9965438,105.518433 79.906682,105.518433 C79.1635945,105.518433 78.8415899,105.741359 77.7269585,106.955069 C76.4389401,108.292627 76.3646313,108.342166 76.0426267,107.896313 C75.3490783,106.979839 75.4976959,105.617512 76.3646313,104.676267 C76.7361751,104.279954 78.0489631,103.487327 79.2874424,102.917627 C80.5506912,102.323157 81.7148618,101.604839 81.937788,101.307604 C82.2102535,100.91129 82.2845622,100.31682 82.1854839,98.7563364 C82.0616359,97.047235 82.1111751,96.6509217 82.4579493,96.3784562 C82.8294931,96.0812212 82.9285714,96.0812212 83.2753456,96.4279954 C83.5973502,96.75 83.671659,97.2949309 83.6221198,99.0288018 C83.5725806,101.629608 83.5230415,101.580069 86.5697005,102.991935 C89.5420507,104.379032 90.5080645,105.444124 90.1612903,107.029378 C89.8392857,108.466014 89.3934332,108.441244 87.9567972,106.90553 C86.7430876,105.592742 86.5697005,105.493664 85.702765,105.567972 C84.7862903,105.642281 84.7367512,105.69182 84.4642857,106.88076 C84.3156682,107.574309 84.0927419,108.267857 83.9936636,108.441244 C83.6964286,108.961406 83.0028802,109.184332 82.4331797,108.961406 Z" id="Shape"></path>
                <path d="M655.031682,212.646889 L655.031682,178.093318 L658.499424,178.093318 L661.967166,178.093318 L661.967166,193.326613 C661.967166,205.339862 662.041475,208.559908 662.289171,208.559908 C666.772465,208.609447 710.366935,208.535138 710.441244,208.485599 C710.490783,208.43606 710.515553,201.574885 710.515553,193.252304 L710.540323,178.093318 L713.983295,178.093318 L717.451037,178.093318 L717.451037,212.646889 L717.451037,247.200461 L713.983295,247.200461 L710.490783,247.200461 L710.515553,231.669931 L710.515553,215.693548 C710.515553,215.272465 709.202765,215.247696 686.241359,215.247696 L661.967166,215.247696 L661.967166,215.817396 L661.967166,231.793779 L661.967166,247.200461 L658.499424,247.200461 L655.031682,247.200461 L655.031682,212.646889 Z" id="Shape"></path>
                <path d="M280.589862,236.822005 C280.639401,236.574309 283.834677,228.524194 287.649194,218.938364 C291.488479,209.352535 295.996544,198.057604 297.680876,193.822005 L300.727535,186.143433 L304.839286,186.069124 C307.910714,186.019585 309.000576,186.093894 309.173963,186.31682 C309.322581,186.490207 310.907834,189.982719 312.716014,194.0697 C314.524194,198.156682 318.611175,207.420507 321.806452,214.628456 C325.026498,221.861175 327.726382,227.979263 327.825461,228.251728 C328.073157,228.945276 326.364055,232.710253 342.984447,195.060484 C345.040323,190.428571 346.798963,186.514977 346.922811,186.366359 C347.071429,186.192972 348.557604,186.093894 351.282258,186.118664 L355.418779,186.143433 L359.406682,196.175115 C361.611175,201.698733 366.168779,213.092742 369.537442,221.514401 C372.881336,229.93606 375.63076,236.921083 375.63076,237.020161 C375.63076,237.391705 368.571429,237.366935 368.274194,236.995392 C368.125576,236.822005 364.806452,228.598502 360.892857,218.715438 C351.75288,195.729263 351.034562,193.945853 350.960253,194.020161 C350.935484,194.044931 347.740207,201.203341 343.851382,209.922235 C339.962558,218.641129 335.677419,228.276498 334.315092,231.347926 C332.705069,234.914747 331.664747,236.970622 331.367512,237.0697 C331.119816,237.168779 329.509793,237.267857 327.775922,237.267857 L324.605415,237.292627 L324.134793,236.351382 C323.862327,235.831221 319.50288,226.121544 314.449885,214.752304 C309.37212,203.383065 305.210829,194.044931 305.18606,193.995392 C305.136521,193.970622 301.297235,203.556452 296.615783,215.297235 C291.934332,227.062788 288.020737,236.822005 287.87212,236.995392 C287.698733,237.193548 286.633641,237.292627 284.057604,237.292627 C280.664171,237.292627 280.466014,237.267857 280.589862,236.822005 Z" id="Shape"></path>
                <path d="M399.038018,236.970622 C398.96371,236.822005 398.93894,225.304147 398.96371,211.40841 L399.038018,186.143433 L428.092742,186.093894 L457.122696,186.044355 L457.122696,189.363479 L457.122696,192.707373 L431.486175,192.707373 L405.849654,192.707373 L405.849654,201.25288 L405.849654,209.798387 L427.770737,209.798387 L449.71659,209.798387 L449.642281,213.092742 L449.567972,216.362327 L448.824885,216.411866 C448.428571,216.411866 438.570276,216.461406 426.978111,216.461406 L405.849654,216.486175 L405.849654,223.545507 L405.849654,230.604839 L431.362327,230.604839 L456.89977,230.604839 L456.825461,233.899194 L456.751152,237.168779 L427.944124,237.218318 C405.230415,237.267857 399.112327,237.218318 399.038018,236.970622 Z" id="Shape"></path>
                <path d="M494.103687,237.044931 C489.248848,236.52477 485.53341,235.038594 483.427995,232.735023 C481.099654,230.158986 480.282258,227.434332 480.480415,222.678571 C480.629032,219.012673 481.173963,217.006336 482.56106,215 C484.220622,212.646889 486.796659,211.185484 490.735023,210.442396 C493.831221,209.847926 494.797235,209.823157 511.987327,209.773618 C520.978687,209.773618 529.053571,209.64977 529.945276,209.525922 C534.354263,208.931452 536.261521,207.915899 537.301843,205.661866 C537.871544,204.423387 537.945853,203.927995 537.945853,201.401498 C537.970622,198.330069 537.698157,196.992512 536.806452,195.654954 C535.741359,194.0697 533.264401,193.177995 528.954493,192.855991 C527.93894,192.781682 516.916475,192.707373 504.482143,192.707373 L481.867512,192.707373 L481.94182,189.437788 L482.016129,186.143433 L505.671083,186.143433 C529.970046,186.143433 531.307604,186.192972 535.047811,187.134217 C538.788018,188.10023 541.908986,190.403802 543.320853,193.301843 C544.534562,195.778802 544.881336,197.636521 544.881336,201.25288 C544.881336,209.575461 541.760369,213.612903 533.93318,215.371544 C530.91129,216.065092 527.889401,216.18894 511.24424,216.21371 C502.25288,216.238479 494.450461,216.312788 493.90553,216.387097 C492.345046,216.585253 490.264401,217.229263 489.372696,217.774194 C487.93606,218.641129 487.490207,219.904378 487.391129,223.297811 C487.31682,226.022465 487.366359,226.36924 487.886521,227.384793 C488.258065,228.103111 488.802995,228.697581 489.447005,229.044355 C490.487327,229.638825 493.063364,230.258065 495.144009,230.456221 C495.837558,230.53053 506.785714,230.580069 519.492512,230.580069 L542.602535,230.604839 L542.528226,233.899194 L542.453917,237.168779 L519.170507,237.193548 C506.364631,237.218318 495.0697,237.144009 494.103687,237.044931 Z" id="Shape"></path>
                <polygon id="Shape" points="565.365783 233.948733 565.365783 230.604839 580.103687 230.604839 594.84159 230.604839 594.84159 208.336982 594.84159 186.069124 598.185484 186.069124 601.529378 186.069124 601.529378 208.336982 601.529378 230.604839 616.391129 230.604839 631.27765 230.604839 631.203341 233.899194 631.129032 237.168779 598.259793 237.243088 565.365783 237.292627"></polygon>
                <path d="M759.187788,237.11924 C756.413594,236.945853 752.400922,236.227535 750.171659,235.509217 C742.245392,233.007488 738.207949,228.226959 736.597926,219.458525 C736.003456,216.164171 736.003456,206.925115 736.622696,203.729839 C738.554724,193.5 744.053571,188.422235 755.100806,186.614055 C758.4447,186.093894 779.895161,185.821429 785.394009,186.242512 C799.413594,187.332373 806.200461,192.855991 807.909562,204.497696 C808.330645,207.346198 808.305876,216.461406 807.884793,219.086982 C806.051843,230.456221 799.438364,235.855991 785.93894,237.044931 C783.486751,237.243088 762.234447,237.317396 759.187788,237.11924 Z M787.400346,230.456221 C795.351382,229.391129 799.364055,226.195853 800.800691,219.830069 C801.419931,217.080645 801.593318,208.584677 801.073157,205.364631 C800.429147,201.302419 799.141129,198.552995 796.961406,196.571429 C795.47523,195.233871 792.304724,193.797235 789.406682,193.177995 C787.078341,192.657834 786.137097,192.633065 774.222926,192.533986 C766.271889,192.459677 760.451037,192.509217 758.618088,192.682604 C751.236751,193.351382 747.125,195.555876 744.945276,199.989631 C743.53341,202.813364 743.211406,204.646313 743.038018,210.293779 C742.839862,217.105415 743.360023,220.597926 745.019585,223.768433 C747.075461,227.632488 751.434908,229.93606 757.949309,230.580069 C761.615207,230.926843 784.551843,230.852535 787.400346,230.456221 Z" id="Shape"></path>
                <path d="M833.967166,236.970622 C833.892857,236.772465 833.892857,228.72235 833.942396,219.062212 C834.041475,199.989631 834.016705,200.336406 835.478111,196.298963 C836.914747,192.31106 840.332949,189.239631 844.890553,187.778226 C849.720622,186.217742 850.513249,186.168203 867.18318,186.143433 C878.478111,186.143433 882.812788,186.217742 884.398041,186.465438 C890.045507,187.332373 893.612327,188.818548 896.138825,191.295507 C897.947005,193.078917 898.83871,194.490783 899.680876,196.992512 C900.869816,200.559332 900.993664,202.392281 900.993664,220.498848 L900.993664,237.267857 L897.60023,237.218318 L894.182028,237.168779 L894.132488,220.226382 C894.082949,201.748272 894.008641,200.782258 892.671083,198.032834 C891.531682,195.729263 889.376728,194.144009 886.206221,193.326613 C883.233871,192.558756 879.741359,192.410138 865.573157,192.533986 C850.389401,192.633065 849.572005,192.707373 846.500576,194.09447 C843.825461,195.30818 842.512673,196.819124 841.47235,199.890553 C840.952189,201.475806 840.927419,201.822581 840.803571,219.334677 L840.679724,237.168779 L837.385369,237.243088 C834.759793,237.292627 834.091014,237.243088 833.967166,236.970622 Z" id="Shape"></path>
                <path d="M939.510369,237.020161 C937.132488,236.797235 933.516129,235.855991 932.005184,235.088134 C927.47235,232.759793 925.243088,227.682028 926.010945,221.316244 C926.704493,215.495392 928.933756,212.62212 934.06106,210.937788 C937.082949,209.947005 939.138825,209.847926 956.601382,209.823157 C965.865207,209.798387 973.890553,209.724078 974.435484,209.64977 C980.256336,208.956221 982.41129,207.717742 983.228687,204.621544 C983.60023,203.234447 983.60023,199.395161 983.228687,197.785138 C982.535138,194.639401 980.454493,193.450461 974.955645,192.955069 C973.395161,192.806452 962.471774,192.707373 949.839286,192.707373 L927.47235,192.707373 L927.546659,189.437788 L927.620968,186.143433 L950.408986,186.143433 C962.942396,186.143433 974.262097,186.217742 975.550115,186.34159 C985.804724,187.134217 990.411866,191.766129 990.411866,201.25288 C990.411866,209.897465 986.993664,213.959677 978.27477,215.644009 C976.46659,215.990783 973.618088,216.065092 958.459101,216.139401 C948.724654,216.21371 940.03053,216.362327 939.138825,216.486175 C935.671083,217.006336 934.383065,217.699885 933.44182,219.582373 C932.896889,220.672235 932.822581,221.118088 932.84735,223.545507 C932.87212,226.691244 933.194124,227.731567 934.457373,228.697581 C936.884793,230.50576 938.544355,230.604839 965.295507,230.604839 L987.959677,230.604839 L987.885369,233.899194 L987.81106,237.168779 L964.775346,237.193548 C952.118088,237.218318 940.748848,237.11924 939.510369,237.020161 Z" id="Shape"></path>
                <path d="M1016.76671,236.970622 C1016.71717,236.797235 1016.6924,225.304147 1016.71717,211.40841 L1016.79147,186.143433 L1045.8462,186.069124 L1074.87615,186.019585 L1074.87615,189.363479 L1074.87615,192.707373 L1049.23963,192.707373 L1023.60311,192.707373 L1023.60311,201.25288 L1023.60311,209.798387 L1045.47465,209.847926 L1067.32143,209.922235 L1067.32143,213.142281 L1067.32143,216.362327 L1045.47465,216.362327 L1023.60311,216.362327 L1023.60311,223.495968 L1023.60311,230.604839 L1049.11578,230.604839 L1074.62846,230.604839 L1074.62846,233.800115 C1074.62846,236.52477 1074.57892,237.020161 1074.23214,237.144009 C1074.00922,237.243088 1061.00518,237.292627 1045.35081,237.292627 C1023.2068,237.267857 1016.86578,237.218318 1016.76671,236.970622 Z" id="Shape"></path>
                <path d="M299.092742,143.787442 L299.092742,133.012673 L300.826613,133.012673 L302.560484,133.012673 L302.610023,141.706797 L302.684332,150.400922 L312.294931,141.706797 L321.9303,133.012673 L323.763249,133.012673 L325.596198,133.012673 L325.596198,143.787442 L325.596198,154.562212 L323.862327,154.562212 L322.128456,154.562212 L322.128456,145.991935 C322.153226,141.260945 322.103687,137.37212 322.054147,137.297811 C322.004608,137.248272 317.645161,141.112327 312.36924,145.892857 L302.80818,154.562212 L300.950461,154.562212 L299.117512,154.562212 L299.092742,143.787442 Z" id="Shape"></path>
                <path d="M332.779378,143.787442 L332.779378,133.012673 L345.040323,133.012673 L357.301267,133.012673 L357.301267,134.597926 C357.301267,135.712558 357.202189,136.18318 357.004032,136.15841 C356.830645,136.15841 352.025346,136.18318 346.353111,136.18318 L335.999424,136.232719 L335.999424,139.452765 L335.999424,142.672811 L344.990783,142.72235 L353.957373,142.796659 L354.031682,144.357143 L354.105991,145.892857 L345.040323,145.892857 L335.999424,145.892857 L335.999424,148.617512 L335.999424,151.342166 L346.600806,151.391705 L357.177419,151.466014 L357.251728,153.026498 L357.326037,154.562212 L345.040323,154.562212 L332.779378,154.562212 L332.779378,143.787442 Z" id="Shape"></path>
                <path d="M360.570853,154.364055 C360.595622,154.215438 362.552419,149.360599 364.855991,143.564516 L369.06682,132.987903 L371.023618,133.062212 L372.980415,133.136521 L374.565668,136.728111 C375.432604,138.709677 377.116935,142.524194 378.281106,145.224078 C379.470046,147.899194 380.510369,150.029378 380.609447,149.9303 C380.733295,149.806452 382.467166,145.991935 384.498272,141.434332 L388.164171,133.136521 L390.145737,133.062212 L392.102535,133.012673 L395.94182,142.697581 C398.047235,148.047811 399.979263,152.87788 400.202189,153.47235 L400.648041,154.562212 L398.839862,154.562212 L397.056452,154.562212 L393.613479,145.892857 C391.706221,141.112327 390.071429,137.297811 389.97235,137.396889 C389.798963,137.570276 385.315668,147.50288 383.061636,152.654954 L382.21947,154.562212 L380.559908,154.562212 L378.900346,154.562212 L374.986751,145.769009 L371.073157,136.951037 L367.580645,145.6947 L364.088134,154.438364 L362.279954,154.512673 C361.214862,154.562212 360.496544,154.487903 360.570853,154.364055 Z" id="Shape"></path>
                <path d="M412.042051,154.438364 C412.042051,154.388825 415.286866,150.797235 419.22523,146.462558 L426.40841,138.610599 L426.40841,135.811636 L426.40841,133.012673 L428.018433,133.012673 L429.628456,133.012673 L429.628456,135.885945 L429.628456,138.759217 L435.746544,145.471774 C439.139977,149.187212 442.384793,152.729263 442.979263,153.398041 L444.069124,154.562212 L441.93894,154.562212 L439.808756,154.562212 L433.913594,148.12212 L428.043203,141.682028 L427.324885,142.375576 C426.953341,142.74712 424.253456,145.645161 421.380184,148.815668 L416.129032,154.562212 L414.097926,154.562212 C412.958525,154.562212 412.042051,154.512673 412.042051,154.438364 Z" id="Shape"></path>
                <path d="M452.466014,154.165899 C447.091014,153.026498 444.960829,149.608295 445.307604,142.697581 C445.53053,138.288594 446.546083,136.133641 449.171659,134.573157 C451.47523,133.18606 452.664171,133.037442 460.961982,133.111751 C468.095622,133.16129 468.467166,133.18606 470.00288,133.75576 C471.21659,134.201613 471.959677,134.672235 473.02477,135.737327 C474.956797,137.669355 475.551267,139.576613 475.551267,143.787442 C475.551267,150.177995 473.470622,153.100806 468.1947,154.165899 C465.692972,154.68606 454.893433,154.68606 452.466014,154.165899 Z M465.84159,151.342166 C470.944124,150.846774 472.281682,149.187212 472.281682,143.440668 C472.256912,138.56106 470.845046,136.77765 466.559908,136.207949 C463.983871,135.861175 453.952189,136.059332 452.490783,136.480415 C451.029378,136.901498 449.567972,138.239055 449.023041,139.650922 C448.403802,141.285714 448.379032,146.264401 449.023041,147.899194 C449.815668,149.979839 451.450461,151.020161 454.521889,151.342166 C457.073157,151.614631 463.092166,151.614631 465.84159,151.342166 Z" id="Shape"></path>
                <path d="M481.644585,143.812212 L481.644585,133.012673 L483.254608,133.012673 L484.864631,133.012673 L484.864631,137.099654 L484.864631,141.186636 L491.379032,141.186636 L497.868664,141.186636 L501.955645,137.099654 L506.042627,133.012673 L508.395737,133.012673 L510.748848,133.037442 L506.538018,137.099654 C504.234447,139.328917 502.376728,141.186636 502.451037,141.186636 C502.673963,141.236175 503.540899,141.384793 504.531682,141.55818 C506.166475,141.805876 507.850806,142.895737 508.593894,144.134217 C509.114055,145.025922 509.262673,145.620392 509.336982,147.403802 C509.460829,150.054147 509.163594,151.09447 507.801267,152.432028 C505.86924,154.388825 505.621544,154.413594 492.865207,154.512673 L481.644585,154.586982 L481.644585,143.812212 Z M504.556452,150.722926 C505.324309,150.351382 505.621544,149.979839 505.894009,149.236751 C506.315092,147.998272 506.092166,146.066244 505.423387,145.397465 C504.531682,144.50576 503.293203,144.406682 493.979839,144.406682 L484.864631,144.406682 L484.864631,147.899194 L484.864631,151.366935 L494.227535,151.292627 C502.995968,151.218318 503.615207,151.193548 504.556452,150.722926 Z" id="Shape"></path>
                <path d="M515.331221,143.787442 L515.331221,133.012673 L517.040323,133.012673 L518.749424,133.012673 L518.774194,136.282258 C518.798963,138.090438 518.898041,139.650922 519.021889,139.77477 C519.220046,139.972926 525.486751,143.663594 525.635369,143.663594 C525.684908,143.663594 528.805876,141.260945 532.570853,138.338134 L539.407258,132.987903 L541.884217,133.062212 L544.385945,133.136521 L536.533986,139.254608 L528.682028,145.372696 L536.31106,149.90553 L543.915323,154.438364 L541.141129,154.512673 L538.366935,154.586982 L528.682028,148.989055 C523.331797,145.917627 518.947581,143.415899 518.898041,143.415899 C518.848502,143.415899 518.798963,145.917627 518.798963,148.989055 L518.798963,154.562212 L517.065092,154.562212 L515.331221,154.562212 L515.331221,143.787442 Z" id="Shape"></path>
            </g>
        </g>
    </g>
</svg>